<svg xmlns="http://www.w3.org/2000/svg" xmlns:xlink="http://www.w3.org/1999/xlink" width="450" zoomAndPan="magnify" viewBox="0 0 337.5 337.500003" height="450" preserveAspectRatio="xMidYMid meet" version="1.0"><defs><g/></defs><g fill="#000000" fill-opacity="1"><g transform="translate(52.93875, 324.805419)"><g><path d="M 54.84375 -309 C 69.78125 -309 85.617188 -307.96875 102.359375 -305.90625 C 119.097656 -303.84375 135.316406 -299.847656 151.015625 -293.921875 C 166.722656 -288.003906 180.953125 -279.378906 193.703125 -268.046875 C 206.453125 -256.722656 216.625 -241.851562 224.21875 -223.4375 C 231.8125 -205.03125 235.609375 -182.050781 235.609375 -154.5 C 235.609375 -127.976562 231.875 -105.640625 224.40625 -87.484375 C 216.9375 -69.328125 206.894531 -54.519531 194.28125 -43.0625 C 181.664062 -31.601562 167.4375 -22.71875 151.59375 -16.40625 C 135.757812 -10.101562 119.535156 -5.789062 102.921875 -3.46875 C 86.316406 -1.15625 70.289062 0 54.84375 0 L 4.25 0 C 1.414062 0 0 -1.15625 0 -3.46875 L 0 -124.765625 L 59.09375 -124.765625 L 59.09375 -56.78125 C 66.5625 -56.519531 75.316406 -56.710938 85.359375 -57.359375 C 95.398438 -58.003906 105.695312 -59.9375 116.25 -63.15625 C 126.8125 -66.375 136.660156 -71.457031 145.796875 -78.40625 C 154.941406 -85.363281 162.28125 -95.019531 167.8125 -107.375 C 173.351562 -119.738281 176.125 -135.445312 176.125 -154.5 C 176.125 -178.957031 171.035156 -198.585938 160.859375 -213.390625 C 150.691406 -228.203125 136.789062 -238.757812 119.15625 -245.0625 C 101.519531 -251.375 81.5 -253.890625 59.09375 -252.609375 L 59.09375 -184.234375 L 0 -184.234375 L 0 -305.53125 C 0 -307.84375 1.414062 -309 4.25 -309 Z M 54.84375 -309 "/></g></g></g></svg>