<?xml version="1.0" encoding="utf-8"?>
<svg width="80" height="80" viewBox="0 0 80 80" fill="none" xmlns="http://www.w3.org/2000/svg" transform="scale(1, -1)" y="-80">
  <path d="M 59.997 40.225 L 54.899 40.225 L 54.899 35.126 L 59.997 35.126 L 59.997 40.225 Z" fill="black"/>
  <path d="M 59.997 45.323 L 54.899 45.323 L 54.899 40.225 L 59.997 40.225 L 59.997 45.323 Z" fill="black"/>
  <path d="M 65.096 45.323 L 59.997 45.323 L 59.997 40.225 L 65.096 40.225 L 65.096 45.323 Z" fill="black"/>
  <path d="M 54.899 45.323 L 49.8 45.323 L 49.8 40.225 L 54.899 40.225 L 54.899 45.323 Z" fill="black"/>
  <path d="M 44.702 24.929 L 39.603 24.929 L 39.603 19.831 L 44.702 19.831 L 44.702 24.929 Z" fill="black"/>
  <path d="M 39.649 9.534 L 44.747 9.534 L 44.747 14.633 L 39.649 14.633 L 39.649 9.534 Z" fill="black"/>
  <path d="M 34.55 9.534 L 39.649 9.534 L 39.649 14.633 L 34.55 14.633 L 34.55 9.534 Z" fill="black"/>
  <path d="M 29.452 9.534 L 34.55 9.534 L 34.55 14.633 L 29.452 14.633 L 29.452 9.534 Z" fill="black"/>
  <path d="M 24.353 9.534 L 29.452 9.534 L 29.452 14.633 L 24.353 14.633 L 24.353 9.534 Z" fill="black"/>
  <path d="M 54.944 9.534 L 60.043 9.534 L 60.043 14.633 L 54.944 14.633 L 54.944 9.534 Z" fill="black"/>
  <path d="M 49.846 9.534 L 54.944 9.534 L 54.944 14.633 L 49.846 14.633 L 49.846 9.534 Z" fill="black"/>
  <path d="M 44.747 9.534 L 49.846 9.534 L 49.846 14.633 L 44.747 14.633 L 44.747 9.534 Z" fill="black"/>
  <path d="M 34.505 45.323 L 29.406 45.323 L 29.406 40.225 L 34.505 40.225 L 34.505 45.323 Z" fill="black"/>
  <path d="M 54.899 50.422 L 49.8 50.422 L 49.8 45.323 L 54.899 45.323 L 54.899 50.422 Z" fill="black"/>
  <path d="M 34.505 50.422 L 29.406 50.422 L 29.406 45.323 L 34.505 45.323 L 34.505 50.422 Z" fill="black"/>
  <path d="M 54.899 55.52 L 49.8 55.52 L 49.8 50.422 L 54.899 50.422 L 54.899 55.52 Z" fill="black"/>
  <path d="M 34.505 55.52 L 29.406 55.52 L 29.406 50.422 L 34.505 50.422 L 34.505 55.52 Z" fill="black"/>
  <path d="M 54.899 60.619 L 49.8 60.619 L 49.8 55.52 L 54.899 55.52 L 54.899 60.619 Z" fill="black"/>
  <path d="M 34.505 60.619 L 29.406 60.619 L 29.406 55.52 L 34.505 55.52 L 34.505 60.619 Z" fill="black"/>
  <path d="M 49.8 65.717 L 44.702 65.717 L 44.702 60.619 L 49.8 60.619 L 49.8 65.717 Z" fill="black"/>
  <path d="M 44.702 65.717 L 39.603 65.717 L 39.603 60.619 L 44.702 60.619 L 44.702 65.717 Z" fill="black"/>
  <path d="M 39.603 65.717 L 34.505 65.717 L 34.505 60.619 L 39.603 60.619 L 39.603 65.717 Z" fill="black"/>
  <path d="M 49.8 30.028 L 44.702 30.028 L 44.702 24.929 L 49.8 24.929 L 49.8 30.028 Z" fill="black"/>
  <path d="M 39.603 30.028 L 34.505 30.028 L 34.505 24.929 L 39.603 24.929 L 39.603 30.028 Z" fill="black"/>
  <path d="M 29.406 45.323 L 24.307 45.323 L 24.307 40.225 L 29.406 40.225 L 29.406 45.323 Z" fill="black"/>
  <path d="M 24.308 45.323 L 19.209 45.323 L 19.209 40.225 L 24.308 40.225 L 24.308 45.323 Z" fill="black"/>
  <path d="M 54.899 35.126 L 49.8 35.126 L 49.8 30.028 L 54.899 30.028 L 54.899 35.126 Z" fill="black"/>
  <path d="M 34.505 35.126 L 29.406 35.126 L 29.406 30.028 L 34.505 30.028 L 34.505 35.126 Z" fill="black"/>
  <path d="M 29.406 40.225 L 24.307 40.225 L 24.307 35.126 L 29.406 35.126 L 29.406 40.225 Z" fill="black"/>
</svg>