<svg xmlns="http://www.w3.org/2000/svg" xmlns:xlink="http://www.w3.org/1999/xlink" width="450" zoomAndPan="magnify" viewBox="0 0 337.5 135.000003" height="180" preserveAspectRatio="xMidYMid meet" version="1.0"><defs><g/></defs><g fill="#000000" fill-opacity="1"><g transform="translate(112.515284, 92.338732)"><g><path d="M 6.984375 -42.921875 L 24.46875 -42.921875 C 29 -42.921875 33 -42.007812 36.46875 -40.1875 C 39.945312 -38.375 42.644531 -35.84375 44.5625 -32.59375 C 46.488281 -29.34375 47.453125 -25.628906 47.453125 -21.453125 C 47.453125 -17.285156 46.488281 -13.578125 44.5625 -10.328125 C 42.644531 -7.078125 39.945312 -4.539062 36.46875 -2.71875 C 33 -0.90625 29 0 24.46875 0 L 6.984375 0 Z M 24.21875 -3.921875 C 27.976562 -3.921875 31.265625 -4.664062 34.078125 -6.15625 C 36.898438 -7.65625 39.085938 -9.722656 40.640625 -12.359375 C 42.203125 -14.992188 42.984375 -18.023438 42.984375 -21.453125 C 42.984375 -24.890625 42.203125 -27.925781 40.640625 -30.5625 C 39.085938 -33.195312 36.898438 -35.257812 34.078125 -36.75 C 31.265625 -38.25 27.976562 -39 24.21875 -39 L 11.53125 -39 L 11.53125 -3.921875 Z M 24.21875 -3.921875 "/></g></g></g><g fill="#000000" fill-opacity="1"><g transform="translate(167.147692, 92.338732)"><g><path d="M 6.984375 -42.921875 L 11.53125 -42.921875 L 11.53125 0 L 6.984375 0 Z M 6.984375 -42.921875 "/></g></g></g><g fill="#000000" fill-opacity="1"><g transform="translate(189.650888, 92.338732)"><g><path d="M 42.859375 -42.921875 L 42.859375 0 L 39.125 0 L 11.53125 -34.828125 L 11.53125 0 L 6.984375 0 L 6.984375 -42.921875 L 10.734375 -42.921875 L 38.375 -8.09375 L 38.375 -42.921875 Z M 42.859375 -42.921875 "/></g></g></g><g fill="#000000" fill-opacity="1"><g transform="translate(243.486204, 92.338732)"><g><path d="M 37.34375 -3.921875 L 37.34375 0 L 6.984375 0 L 6.984375 -42.921875 L 36.421875 -42.921875 L 36.421875 -39 L 11.53125 -39 L 11.53125 -23.734375 L 33.71875 -23.734375 L 33.71875 -19.859375 L 11.53125 -19.859375 L 11.53125 -3.921875 Z M 37.34375 -3.921875 "/></g></g></g><g fill="#000000" fill-opacity="1"><g transform="translate(288.492118, 92.338732)"><g><path d="M 36.296875 0 L 26.484375 -13.796875 C 25.378906 -13.671875 24.234375 -13.609375 23.046875 -13.609375 L 11.53125 -13.609375 L 11.53125 0 L 6.984375 0 L 6.984375 -42.921875 L 23.046875 -42.921875 C 28.523438 -42.921875 32.816406 -41.613281 35.921875 -39 C 39.035156 -36.382812 40.59375 -32.785156 40.59375 -28.203125 C 40.59375 -24.847656 39.742188 -22.015625 38.046875 -19.703125 C 36.347656 -17.398438 33.925781 -15.738281 30.78125 -14.71875 L 41.265625 0 Z M 22.9375 -17.46875 C 27.1875 -17.46875 30.429688 -18.40625 32.671875 -20.28125 C 34.921875 -22.164062 36.046875 -24.804688 36.046875 -28.203125 C 36.046875 -31.679688 34.921875 -34.347656 32.671875 -36.203125 C 30.429688 -38.066406 27.1875 -39 22.9375 -39 L 11.53125 -39 L 11.53125 -17.46875 Z M 22.9375 -17.46875 "/></g></g></g><g fill="#000000" fill-opacity="1"><g transform="translate(7.746654, 120.309033)"><g><path d="M 19.140625 -107.8125 C 24.347656 -107.8125 29.867188 -107.453125 35.703125 -106.734375 C 41.546875 -106.015625 47.207031 -104.617188 52.6875 -102.546875 C 58.175781 -100.484375 63.140625 -97.472656 67.578125 -93.515625 C 72.023438 -89.566406 75.570312 -84.378906 78.21875 -77.953125 C 80.875 -71.535156 82.203125 -63.519531 82.203125 -53.90625 C 82.203125 -44.65625 80.898438 -36.863281 78.296875 -30.53125 C 75.691406 -24.195312 72.1875 -19.03125 67.78125 -15.03125 C 63.382812 -11.03125 58.421875 -7.925781 52.890625 -5.71875 C 47.367188 -3.519531 41.707031 -2.015625 35.90625 -1.203125 C 30.113281 -0.398438 24.523438 0 19.140625 0 L 1.484375 0 C 0.492188 0 0 -0.40625 0 -1.21875 L 0 -43.53125 L 20.625 -43.53125 L 20.625 -19.8125 C 23.226562 -19.71875 26.28125 -19.78125 29.78125 -20 C 33.289062 -20.226562 36.882812 -20.90625 40.5625 -22.03125 C 44.25 -23.15625 47.6875 -24.929688 50.875 -27.359375 C 54.0625 -29.785156 56.617188 -33.15625 58.546875 -37.46875 C 60.484375 -41.78125 61.453125 -47.257812 61.453125 -53.90625 C 61.453125 -62.4375 59.675781 -69.285156 56.125 -74.453125 C 52.582031 -79.617188 47.734375 -83.300781 41.578125 -85.5 C 35.421875 -87.707031 28.4375 -88.585938 20.625 -88.140625 L 20.625 -64.28125 L 0 -64.28125 L 0 -106.59375 C 0 -107.40625 0.492188 -107.8125 1.484375 -107.8125 Z M 19.140625 -107.8125 "/></g></g></g></svg>