<svg width="80" height="80" viewBox="0 0 80 80" fill="none" xmlns="http://www.w3.org/2000/svg">
<path d="M57.8448 32.3522H52.7463V27.2536H57.8448V32.3522Z" fill="black"/>
<path d="M57.8448 37.4508H52.7463V32.3522H57.8448V37.4508Z" fill="black"/>
<path d="M62.9433 37.4508H57.8447V32.3522H62.9433V37.4508Z" fill="black"/>
<path d="M52.7462 37.4508H47.6476V32.3522H52.7462V37.4508Z" fill="black"/>
<path d="M42.5492 17.0565H37.4506V11.958H42.5492V17.0565Z" fill="black"/>
<path d="M37.4508 62.9434H42.5494V68.042H37.4508V62.9434Z" fill="black"/>
<path d="M32.3522 62.9434H37.4508V68.042H32.3522V62.9434Z" fill="black"/>
<path d="M27.2537 62.9434H32.3523V68.042H27.2537V62.9434Z" fill="black"/>
<path d="M22.1552 62.9434H27.2537V68.042H22.1552V62.9434Z" fill="black"/>
<path d="M52.7462 62.9434H57.8448V68.042H52.7462V62.9434Z" fill="black"/>
<path d="M47.6478 62.9434H52.7464V68.042H47.6478V62.9434Z" fill="black"/>
<path d="M42.5492 62.9434H47.6478V68.042H42.5492V62.9434Z" fill="black"/>
<path d="M32.3522 37.4508H27.2536V32.3522H32.3522V37.4508Z" fill="black"/>
<path d="M52.7462 42.5492H47.6476V37.4506H52.7462V42.5492Z" fill="black"/>
<path d="M32.3522 42.5492H27.2536V37.4506H32.3522V42.5492Z" fill="black"/>
<path d="M52.7462 47.6478H47.6476V42.5492H52.7462V47.6478Z" fill="black"/>
<path d="M32.3522 47.6478H27.2536V42.5492H32.3522V47.6478Z" fill="black"/>
<path d="M52.7462 52.7462H47.6476V47.6477H52.7462V52.7462Z" fill="black"/>
<path d="M32.3522 52.7462H27.2536V47.6477H32.3522V52.7462Z" fill="black"/>
<path d="M47.6478 57.8448H42.5492V52.7463H47.6478V57.8448Z" fill="black"/>
<path d="M42.5492 57.8448H37.4506V52.7463H42.5492V57.8448Z" fill="black"/>
<path d="M37.4508 57.8448H32.3522V52.7463H37.4508V57.8448Z" fill="black"/>
<path d="M47.6478 22.1553H42.5492V17.0567H47.6478V22.1553Z" fill="black"/>
<path d="M37.4508 22.1553H32.3522V17.0567H37.4508V22.1553Z" fill="black"/>
<path d="M27.2537 37.4508H22.1551V32.3522H27.2537V37.4508Z" fill="black"/>
<path d="M22.1553 37.4508H17.0567V32.3522H22.1553V37.4508Z" fill="black"/>
<path d="M52.7462 27.2538H47.6476V22.1552H52.7462V27.2538Z" fill="black"/>
<path d="M32.3522 27.2538H27.2536V22.1552H32.3522V27.2538Z" fill="black"/>
<path d="M27.2537 32.3522H22.1551V27.2536H27.2537V32.3522Z" fill="black"/>
</svg>
