<svg width="81" height="80" viewBox="0 0 81 80" fill="none" xmlns="http://www.w3.org/2000/svg">
<path d="M14.8407 22.1552H19.9393V27.2537H14.8407V22.1552Z" fill="black"/>
<path d="M25.0378 62.9434H30.1363V68.042H25.0378V62.9434Z" fill="black"/>
<path d="M14.8407 57.8448H19.9393V62.9434H14.8407V57.8448Z" fill="black"/>
<path d="M35.2348 52.7462H40.3334V57.8448H35.2348V52.7462Z" fill="black"/>
<path d="M40.3334 52.7462H45.432V57.8448H40.3334V52.7462Z" fill="black"/>
<path d="M50.5304 57.8448H55.629V62.9434H50.5304V57.8448Z" fill="black"/>
<path d="M30.1363 52.7462H35.2349V57.8448H30.1363V52.7462Z" fill="black"/>
<path d="M35.2348 27.2538H40.3334V32.3523H35.2348V27.2538Z" fill="black"/>
<path d="M30.1363 37.4508H35.2349V42.5494H30.1363V37.4508Z" fill="black"/>
<path d="M40.3334 27.2538H45.432V32.3523H40.3334V27.2538Z" fill="black"/>
<path d="M35.2348 42.5492H40.3334V47.6478H35.2348V42.5492Z" fill="black"/>
<path d="M40.3334 42.5492H45.432V47.6478H40.3334V42.5492Z" fill="black"/>
<path d="M30.1363 32.3522H35.2349V37.4508H30.1363V32.3522Z" fill="black"/>
<path d="M45.432 37.4508H50.5306V42.5494H45.432V37.4508Z" fill="black"/>
<path d="M45.432 32.3522H50.5306V37.4508H45.432V32.3522Z" fill="black"/>
<path d="M25.0378 57.8448H30.1363V62.9434H25.0378V57.8448Z" fill="black"/>
<path d="M60.7274 57.8448H65.826V62.9434H60.7274V57.8448Z" fill="black"/>
<path d="M50.5304 62.9434H55.629V68.042H50.5304V62.9434Z" fill="black"/>
<path d="M35.2348 11.9581H40.3334V17.0567H35.2348V11.9581Z" fill="black"/>
<path d="M30.1363 11.9581H35.2349V17.0567H30.1363V11.9581Z" fill="black"/>
<path d="M25.0378 17.0565H30.1363V22.1551H25.0378V17.0565Z" fill="black"/>
<path d="M19.9393 62.9434H25.0379V68.042H19.9393V62.9434Z" fill="black"/>
<path d="M19.9393 17.0565H25.0379V22.1551H19.9393V17.0565Z" fill="black"/>
<path d="M50.5304 17.0565H55.629V22.1551H50.5304V17.0565Z" fill="black"/>
<path d="M55.629 62.9434H60.7276V68.042H55.629V62.9434Z" fill="black"/>
<path d="M55.629 17.0565H60.7276V22.1551H55.629V17.0565Z" fill="black"/>
<path d="M40.3334 11.9581H45.432V17.0567H40.3334V11.9581Z" fill="black"/>
<path d="M45.432 52.7462H50.5306V57.8448H45.432V52.7462Z" fill="black"/>
<path d="M45.432 11.9581H50.5306V17.0567H45.432V11.9581Z" fill="black"/>
<path d="M9.74228 42.5492H14.8409V47.6478H9.74228V42.5492Z" fill="black"/>
<path d="M14.8407 52.7462H19.9393V57.8448H14.8407V52.7462Z" fill="black"/>
<path d="M9.74228 37.4508H14.8409V42.5494H9.74228V37.4508Z" fill="black"/>
<path d="M9.74228 32.3522H14.8409V37.4508H9.74228V32.3522Z" fill="black"/>
<path d="M14.8407 27.2538H19.9393V32.3523H14.8407V27.2538Z" fill="black"/>
<path d="M65.826 42.5492H70.9246V47.6478H65.826V42.5492Z" fill="black"/>
<path d="M9.74228 47.6478H14.8409V52.7464H9.74228V47.6478Z" fill="black"/>
<path d="M65.826 47.6478H70.9246V52.7464H65.826V47.6478Z" fill="black"/>
<path d="M60.7274 52.7462H65.826V57.8448H60.7274V52.7462Z" fill="black"/>
<path d="M65.826 37.4508H70.9246V42.5494H65.826V37.4508Z" fill="black"/>
<path d="M65.826 32.3522H70.9246V37.4508H65.826V32.3522Z" fill="black"/>
<path d="M60.7274 27.2538H65.826V32.3523H60.7274V27.2538Z" fill="black"/>
<path d="M60.7274 22.1552H65.826V27.2537H60.7274V22.1552Z" fill="black"/>
</svg>
